<svg width="64" height="64" viewBox="0 0 64 64" fill="none" xmlns="http://www.w3.org/2000/svg">
  <rect width="64" height="64" rx="18" fill="url(#paint0_linear_ig)"/>
  <path d="M42 18H22C19.7909 18 18 19.7909 18 22V42C18 44.2091 19.7909 46 22 46H42C44.2091 46 46 44.2091 46 42V22C46 19.7909 44.2091 18 42 18Z" stroke="white" stroke-width="3.5" stroke-linecap="round" stroke-linejoin="round"/>
  <path d="M32 39C35.866 39 39 35.866 39 32C39 28.134 35.866 25 32 25C28.134 25 25 28.134 25 32C25 35.866 28.134 39 32 39Z" stroke="white" stroke-width="3.5" stroke-linecap="round" stroke-linejoin="round"/>
  <path d="M41.5 23.5H41.51" stroke="white" stroke-width="4" stroke-linecap="round" stroke-linejoin="round"/>
  <defs>
    <linearGradient id="paint0_linear_ig" x1="8.5" y1="57.5" x2="57" y2="7" gradientUnits="userSpaceOnUse">
      <stop stop-color="#F9CE34"/>
      <stop offset="0.32" stop-color="#EE2A7B"/>
      <stop offset="0.67" stop-color="#A32CC4"/>
      <stop offset="1" stop-color="#4C68D7"/>
    </linearGradient>
  </defs>
</svg>
